HIERARCHY
ROOT pelvis
{
	OFFSET 0.000000 0.000000 0.937925
	CHANNELS 6 Xposition Yposition Zposition Xrotation Yrotation Zrotation
	JOINT spine
	{
		OFFSET 0.000000 0.000000 0.000000
		CHANNELS 6 Xposition Yposition Zposition Xrotation Yrotation Zrotation
		JOINT spine.001
		{
			OFFSET 0.000000 -0.015966 0.304644
			CHANNELS 3 Xrotation Yrotation Zrotation
			JOINT neck
			{
				OFFSET 0.000000 0.037178 0.302788
				CHANNELS 6 Xposition Yposition Zposition Xrotation Yrotation Zrotation
				JOINT face
				{
					OFFSET 0.000000 0.004173 0.239085
					CHANNELS 6 Xposition Yposition Zposition Xrotation Yrotation Zrotation
					End Site
					{
						OFFSET 0.000000 -0.033637 -0.009393
					}
				}
			}
			JOINT shoulder.L
			{
				OFFSET 0.000000 0.037178 0.302788
				CHANNELS 6 Xposition Yposition Zposition Yrotation Xrotation Zrotation
				JOINT upper_arm.L
				{
					OFFSET 0.190409 0.000000 0.000000
					CHANNELS 6 Xposition Yposition Zposition Xrotation Yrotation Zrotation
					JOINT forearm.L
					{
						OFFSET 0.324777 0.000140 0.001157
						CHANNELS 6 Xposition Yposition Zposition Xrotation Yrotation Zrotation
						End Site
						{
							OFFSET 0.267200 -0.004536 -0.001591
						}
					}
				}
			}
			JOINT shoulder.R
			{
				OFFSET 0.000000 0.037178 0.302788
				CHANNELS 6 Xposition Yposition Zposition Yrotation Xrotation Zrotation
				JOINT upper_arm.R
				{
					OFFSET -0.190409 0.000000 0.000000
					CHANNELS 6 Xposition Yposition Zposition Xrotation Yrotation Zrotation
					JOINT forearm.R
					{
						OFFSET -0.316622 0.000140 0.001157
						CHANNELS 6 Xposition Yposition Zposition Xrotation Yrotation Zrotation
						End Site
						{
							OFFSET -0.281049 -0.004778 -0.001593
						}
					}
				}
			}
		}
	}
	JOINT pelvis.L
	{
		OFFSET 0.000000 0.000000 0.000000
		CHANNELS 6 Xposition Yposition Zposition Yrotation Xrotation Zrotation
		End Site
		{
			OFFSET 0.115127 0.000000 0.000000
		}
	}
	JOINT pelvis.R
	{
		OFFSET 0.000000 0.000000 0.000000
		CHANNELS 6 Xposition Yposition Zposition Yrotation Xrotation Zrotation
		End Site
		{
			OFFSET -0.115127 0.000000 0.000000
		}
	}
	JOINT thigh.L
	{
		OFFSET 0.115127 0.000000 0.000000
		CHANNELS 6 Xposition Yposition Zposition Xrotation Yrotation Zrotation
		JOINT shin.L
		{
			OFFSET 0.022519 0.000000 -0.429682
			CHANNELS 6 Xposition Yposition Zposition Xrotation Yrotation Zrotation
			JOINT foot.L
			{
				OFFSET 0.022219 0.000000 -0.423959
				CHANNELS 3 Xrotation Yrotation Zrotation
				End Site
				{
					OFFSET 0.018503 -0.188658 -0.079221
				}
			}
			JOINT heel.02.L
			{
				OFFSET 0.022219 0.000000 -0.423959
				CHANNELS 3 Xrotation Yrotation Zrotation
				End Site
				{
					OFFSET 0.101695 0.041604 -0.077896
				}
			}
		}
	}
	JOINT thigh.R
	{
		OFFSET -0.115127 0.000000 0.000000
		CHANNELS 6 Xposition Yposition Zposition Xrotation Yrotation Zrotation
		JOINT shin.R
		{
			OFFSET -0.022063 0.000000 -0.420980
			CHANNELS 6 Xposition Yposition Zposition Xrotation Yrotation Zrotation
			JOINT foot.R
			{
				OFFSET -0.022750 0.000000 -0.434104
				CHANNELS 3 Xrotation Yrotation Zrotation
				End Site
				{
					OFFSET -0.019477 -0.198591 -0.083392
				}
			}
			JOINT heel.02.R
			{
				OFFSET -0.022750 0.000000 -0.434104
				CHANNELS 3 Xrotation Yrotation Zrotation
				End Site
				{
					OFFSET -0.100823 0.041604 -0.076495
				}
			}
		}
	}
}
MOTION
Frames: 10
Frame Time: 0.041667
0.011068 -0.002600 0.918466 -0.000000 0.000000 2.597998 0.000000 0.000000 0.000000 -9.730227 -1.128661 -0.155919 9.975722 0.583608 4.758866 0.000000 0.037178 0.302788 28.269589 8.993423 21.349486 -0.000000 0.004173 0.239085 4.034823 0.000001 -0.000010 0.000000 0.037178 0.302788 1.399518 0.002097 -0.171797 0.190409 0.000000 0.000000 13.805529 78.982771 -16.740826 0.324777 0.000140 0.001157 2.832320 16.393731 -18.255981 0.000000 0.037178 0.302788 1.453648 0.002264 -0.178459 -0.190409 0.000000 0.000000 4.207479 -81.849483 4.897553 -0.316622 0.000140 0.001157 2.243839 -14.054188 16.857271 0.000000 -0.000000 0.000000 -0.253597 -0.000000 -0.000012 0.000000 -0.000000 0.000000 -0.253597 -0.000000 -0.000000 0.115125 -0.000000 0.000510 4.924534 4.731603 0.054780 0.022519 -0.000000 -0.429682 -0.494514 -5.658863 -0.050225 -5.227824 0.005150 -1.112868 -14.114150 47.093820 37.837271 -0.115125 0.000000 -0.000509 4.793630 -2.580242 -0.143521 -0.022063 -0.000000 -0.420980 1.698792 2.658320 -0.128300 -9.160161 4.519952 -6.877786 -21.194664 -50.805276 -40.527156 
0.013933 -0.004495 0.919013 -0.000000 0.000000 2.524277 0.000000 0.000000 0.000000 -9.854838 -1.152483 -0.160488 9.973750 0.605828 4.940537 0.000000 0.037178 0.302788 28.565506 9.277357 21.693234 -0.000000 0.004173 0.239085 3.886607 -0.000002 -0.000005 -0.000000 0.037178 0.302788 1.356550 0.001972 -0.166604 0.190409 0.000000 -0.000000 13.877916 78.828169 -16.873190 0.324777 0.000140 0.001157 2.866936 16.741094 -18.059391 -0.000000 0.037178 0.302788 1.410680 0.002134 -0.173267 -0.190409 -0.000000 0.000000 2.804938 -81.401716 3.307425 -0.316622 0.000140 0.001157 2.390391 -14.633889 17.245077 0.000000 -0.000000 0.000000 -0.209249 -0.000000 -0.000023 0.000000 -0.000000 0.000000 -0.209279 -0.000000 0.000000 0.115126 -0.000000 0.000420 5.094799 4.913830 0.048543 0.022519 -0.000000 -0.429682 -0.563549 -5.675171 -0.057319 -5.303684 -0.074855 -0.958897 -14.132436 47.073165 37.739401 -0.115126 0.000000 -0.000420 4.590440 -2.556673 -0.138375 -0.022063 0.000000 -0.420980 2.320839 2.958544 -0.181343 -9.540646 4.525222 -6.756247 -21.611314 -51.024839 -40.697539 
0.016790 -0.006350 0.919666 -0.000000 0.000000 2.277541 0.000000 0.000000 0.000000 -9.926089 -1.192723 -0.166848 9.973644 0.607526 4.954291 0.000000 0.037178 0.302789 28.578526 9.672390 22.579682 -0.000000 0.004173 0.239085 3.890944 -0.000002 0.000001 0.000000 0.037178 0.302789 1.373661 0.002022 -0.168688 0.190409 0.000000 0.000000 13.971143 78.783766 -16.998749 0.324777 0.000140 0.001157 2.836198 16.695218 -17.904619 0.000000 0.037178 0.302789 1.427790 0.002185 -0.175355 -0.190409 0.000000 -0.000000 2.747237 -81.136862 3.255265 -0.316622 0.000140 0.001157 2.448473 -14.855788 17.400025 -0.000000 0.000000 0.000000 -0.178577 -0.000000 0.000021 -0.000000 0.000000 0.000000 -0.178577 -0.000000 -0.000000 0.115126 -0.000000 0.000359 5.267174 5.162379 0.038712 0.022519 0.000000 -0.429682 -0.576818 -5.747221 -0.059028 -5.461950 -0.253490 -0.614918 -14.399642 47.228648 37.784675 -0.115126 0.000000 -0.000359 4.389835 -2.470828 -0.135612 -0.022063 0.000000 -0.420980 2.883468 3.138638 -0.229833 -9.882485 4.435439 -6.471139 -21.815551 -51.113659 -40.692116 
0.019229 -0.007647 0.920314 -0.000000 0.000000 2.041471 0.000000 0.000000 0.000000 -9.935710 -1.243975 -0.174125 9.975384 0.586663 4.783852 0.000000 0.037178 0.302789 28.416859 10.276026 23.903808 -0.000000 0.004173 0.239086 3.761113 0.000000 -0.000006 -0.000000 0.037178 0.302789 1.496736 0.002401 -0.183850 0.190409 0.000000 -0.000000 13.700095 78.832582 -16.657291 0.324777 0.000140 0.001157 2.787077 16.348044 -17.996044 0.000000 0.037178 0.302789 1.550828 0.002578 -0.190475 -0.190409 -0.000000 0.000000 4.425557 -81.269983 5.200594 -0.316622 0.000140 0.001157 2.359634 -14.534540 17.136014 0.000000 0.000000 0.000000 -0.159770 -0.000000 0.000047 0.000000 0.000000 0.000000 -0.159770 -0.000000 0.000000 0.115126 -0.000000 0.000321 5.371905 5.418425 0.027419 0.022519 0.000000 -0.429682 -0.538066 -5.864613 -0.055611 -5.640313 -0.438902 -0.263659 -14.768809 47.482167 37.981470 -0.115126 0.000000 -0.000321 4.214163 -2.348263 -0.134691 -0.022063 0.000000 -0.420980 3.328453 3.182097 -0.266575 -10.080281 4.356248 -6.256914 -21.906256 -51.149624 -40.672643 
0.021139 -0.008538 0.920812 -0.000000 0.000000 1.960205 -0.000000 0.000000 0.000000 -9.947337 -1.299198 -0.181989 9.977666 0.559504 4.561791 0.000000 0.037178 0.302788 28.369211 11.014554 25.018235 -0.000000 0.004173 0.239085 3.369050 -0.000004 0.000013 0.000000 0.037178 0.302789 1.678619 0.003019 -0.206114 0.190409 0.000000 -0.000000 13.013505 78.955307 -15.794715 0.324777 0.000140 0.001157 2.751482 15.910386 -18.307373 0.000000 0.037178 0.302788 1.732713 0.003217 -0.212744 -0.190409 -0.000000 -0.000000 7.071566 -81.681221 8.218844 -0.316622 0.000140 0.001157 2.181730 -13.868253 16.598464 -0.000000 -0.000000 0.000000 -0.144582 -0.000000 0.000010 -0.000000 -0.000000 0.000000 -0.144611 -0.000000 -0.000000 0.115126 -0.000000 0.000291 5.318908 5.587923 0.019238 0.022519 0.000000 -0.429682 -0.299401 -5.912199 -0.031067 -5.877000 -0.564700 -0.051655 -15.106505 47.726066 38.212487 -0.115126 0.000000 -0.000291 4.110201 -2.221822 -0.135901 -0.022063 -0.000000 -0.420980 3.632956 3.133552 -0.289447 -10.123247 4.389529 -6.304806 -22.017675 -51.209849 -40.729815 
0.023037 -0.010157 0.921198 -0.000000 0.000000 1.917732 -0.000000 0.000000 0.000000 -10.041700 -1.374468 -0.193688 9.977768 0.557959 4.549188 0.000000 0.037178 0.302788 28.542228 11.695662 25.455572 -0.000000 0.004173 0.239085 2.965956 -0.000001 0.000002 0.000000 0.037178 0.302788 1.831189 0.003593 -0.224828 0.190409 0.000000 -0.000000 12.178244 79.138062 -14.740795 0.324777 0.000140 0.001157 2.731598 15.580032 -18.605679 0.000000 0.037178 0.302788 1.885317 0.003809 -0.231494 -0.190409 -0.000000 0.000000 8.796924 -82.064409 10.141987 -0.316622 0.000140 0.001157 2.030258 -13.275714 16.129796 -0.000000 0.000000 -0.000000 -0.134437 -0.000000 -0.000060 -0.000000 0.000000 -0.000000 -0.134466 -0.000000 -0.000000 0.115126 -0.000000 0.000270 5.081742 5.634662 0.016295 0.022519 0.000000 -0.429682 0.383269 -5.736563 0.039187 -6.370844 -0.695794 0.113543 -15.497957 47.950049 38.291239 -0.115126 0.000000 -0.000270 4.175185 -2.045990 -0.144456 -0.022063 -0.000000 -0.420980 3.713099 2.998344 -0.291475 -10.087173 4.481556 -6.488617 -22.075942 -51.233843 -40.722155 
0.025358 -0.013210 0.921597 -0.000000 0.000000 1.723093 0.000000 0.000000 0.000000 -10.213595 -1.471016 -0.209546 9.974584 0.597276 4.870584 -0.000000 0.037178 0.302789 28.739793 12.157166 25.350990 -0.000000 0.004173 0.239085 2.898535 0.000000 -0.000002 -0.000000 0.037178 0.302789 1.915306 0.003929 -0.235073 0.190409 0.000000 -0.000000 11.437189 79.345666 -13.799619 0.324777 0.000140 0.001157 2.721205 15.419314 -18.750088 0.000000 0.037178 0.302788 1.969434 0.004156 -0.241754 -0.190409 -0.000000 0.000000 7.986776 -82.221250 9.188611 -0.316622 0.000140 0.001157 1.984430 -13.074825 16.009663 -0.000000 -0.000000 -0.000000 -0.130195 0.000000 0.000024 -0.000000 -0.000000 -0.000000 -0.130195 0.000000 0.000000 0.115126 -0.000000 0.000262 4.744418 5.618608 0.015880 0.022519 0.000000 -0.429682 1.491252 -5.363762 0.147652 -7.165771 -0.912070 0.381520 -16.063700 48.193087 38.132366 -0.115126 0.000000 -0.000262 4.432651 -1.760785 -0.164403 -0.022063 0.000000 -0.420980 3.535332 2.749196 -0.269858 -10.047903 4.501493 -6.539061 -21.892204 -51.105927 -40.484679 
0.027739 -0.016791 0.921924 -0.000000 0.000000 1.409779 0.000000 0.000000 0.000000 -10.368363 -1.540628 -0.221587 9.969116 0.658575 5.371923 -0.000000 0.037178 0.302789 28.746849 12.341937 25.111059 -0.000000 0.004173 0.239085 3.182357 -0.000002 -0.000006 -0.000000 0.037178 0.302789 1.937483 0.004023 -0.237844 0.190409 0.000000 0.000000 10.824927 79.536849 -13.022098 0.324777 0.000140 0.001157 2.730108 15.341402 -18.925932 -0.000000 0.037178 0.302789 1.991576 0.004251 -0.244488 -0.190409 -0.000000 0.000000 5.175710 -82.134473 5.982932 -0.316622 0.000140 0.001157 2.049649 -13.300108 16.265576 -0.000000 0.000000 0.000000 -0.120821 -0.000000 0.000062 -0.000000 0.000000 0.000000 -0.120821 -0.000000 0.000000 0.115126 -0.000000 0.000243 4.444929 5.648738 0.013702 0.022519 -0.000000 -0.429682 2.609388 -5.075817 0.251868 -7.946135 -1.156814 0.698519 -16.694340 48.441450 37.875926 -0.115126 0.000000 -0.000243 4.725140 -1.403441 -0.189989 -0.022063 0.000000 -0.420980 3.291853 2.413424 -0.241658 -10.039646 4.426019 -6.400797 -21.483744 -50.845509 -40.096465 
0.029490 -0.019413 0.921919 -0.000000 0.000000 1.162412 0.000000 0.000000 0.000000 -10.440900 -1.537968 -0.222198 9.963770 0.712937 5.816758 0.000000 0.037178 0.302789 28.600319 12.307873 24.952383 -0.000000 0.004173 0.239085 3.495716 -0.000002 -0.000002 0.000000 0.037178 0.302789 1.908019 0.003902 -0.234247 0.190409 0.000000 -0.000000 10.266159 79.692721 -12.320598 0.324777 0.000140 0.001157 2.778834 15.242986 -19.433734 0.000000 0.037178 0.302789 1.962077 0.004126 -0.240906 -0.190409 -0.000000 -0.000000 2.284998 -81.909411 2.680280 -0.316622 0.000140 0.001157 2.176572 -13.758412 16.709023 0.000000 0.000000 0.000000 -0.098988 -0.000000 0.000045 0.000000 0.000000 0.000000 -0.098988 -0.000000 0.000000 0.115126 -0.000000 0.000199 4.240666 5.775342 0.008361 0.022519 0.000000 -0.429682 3.369983 -5.115804 0.326492 -8.373657 -1.309160 0.902869 -17.187010 48.660481 37.767295 -0.115126 0.000000 -0.000199 4.840469 -1.082174 -0.208191 -0.022063 -0.000000 -0.420980 3.280002 2.090163 -0.231574 -10.085331 4.342991 -6.230482 -21.090316 -50.599343 -39.767540 
0.030440 -0.020755 0.921526 -0.000000 0.000000 1.030378 -0.000000 0.000000 0.000000 -10.467078 -1.486365 -0.215089 9.959737 0.750889 6.127562 0.000000 0.037178 0.302788 28.491058 12.207396 24.878515 0.000000 0.004173 0.239085 3.561537 0.000000 0.000004 -0.000000 0.037178 0.302789 1.844744 0.003647 -0.226525 0.190409 0.000000 -0.000000 9.813665 79.809121 -11.757002 0.324777 0.000140 0.001157 2.857550 15.119261 -20.213450 0.000000 0.037178 0.302789 1.898873 0.003863 -0.233157 -0.190409 0.000000 0.000000 0.483976 -81.680019 0.609566 -0.316622 0.000140 0.001157 2.301559 -14.196716 17.133296 0.000000 0.000000 -0.000000 -0.072350 -0.000000 0.000000 0.000000 0.000000 -0.000000 -0.072350 -0.000000 0.000000 0.115126 -0.000000 0.000145 4.059012 5.916495 0.002974 0.022519 -0.000000 -0.429682 3.856992 -5.347776 0.381475 -8.481322 -1.361953 0.981871 -17.517087 48.853034 37.868744 -0.115126 0.000000 -0.000145 4.718538 -0.864799 -0.211881 -0.022063 -0.000000 -0.420980 3.604690 1.879014 -0.247896 -10.212831 4.302885 -6.113693 -20.875531 -50.457367 -39.561077 
